<?xml version="1.0" encoding="utf-8"?>
<!-- Generator: Adobe Illustrator 24.3.0, SVG Export Plug-In . SVG Version: 6.00 Build 0)  -->
<svg version="1.1" id="Layer_1" xmlns="http://www.w3.org/2000/svg" xmlns:xlink="http://www.w3.org/1999/xlink" x="0px" y="0px"
	 viewBox="0 0 374.7 265.9" style="enable-background:new 0 0 374.7 265.9;" xml:space="preserve">
<style type="text/css">
	.st0{fill:#F2F2F2;}
</style>
<path d="M89.6,4.2c-1.1,19.8-2.1,39.6-3.2,59.5l-17.2,0.9c0.8-13.2,1.5-26.3,2.3-39.5l-13.9-0.9c0.2-2.8,0.4-5.6,0.6-8.4
	c1.3,0.2,10.3,1.3,16.7-4.8c2-2,3.5-4.4,4.4-7L89.6,4.2z"/>
<path d="M107.3,68.3c-22.3,2.3-44.7,4.7-67,7c-0.1-1.3-0.3-2.6-0.5-3.9c22.3-2.3,44.7-4.6,67-6.9C107,65.8,107.2,67,107.3,68.3z"/>
<path d="M63.9,122.7c12.8,0.8,25.6,1.5,38.4,2.3c-0.4,4.4-0.9,8.7-1.3,13.1c-19.2-1-38.3-2.1-57.5-3.2c-0.5-3.8-0.2-7.7,1.1-11.4
	c2.8-7.9,9.3-12,12.2-13.7c6.7-4.1,15.4-6.1,18.3-6.8c3.8-0.8,8.1-1.4,10.4-4.9c0.9-1.4,1.3-3,1.3-4.6c-0.2-4.3-4.3-6.7-5.2-7.3
	c-5-2.1-10.6-1.6-15.1,1.4c-4.5,3.8-4,10.2-4,11c-5.6-0.5-11.3-1.1-16.9-1.6c-0.1-2.4,0-9.8,5.2-15.9c1.5-1.7,3.3-3.2,5.2-4.4
	c11.3-0.5,22.7-1,34-1.5c3.9,1.2,7.2,3.6,9.7,6.8c2.3,2.9,3.6,6.5,4,10.1c0.4,4.3-0.6,8.6-2.9,12.3c-3.2,3.3-6.9,6-11,8
	c-2.2,1-4.4,1.8-6.7,2.5c-5.3,1.8-6.9,1.8-10.4,3.1C69.7,119.2,66.7,120.7,63.9,122.7z"/>
<path d="M334.6,68.8c-0.3-5.8-2-36.8-27.1-55.7c-9-6.7-19.5-11-30.5-12.5c-17.5-2.4-31,3-38.1,5.9c-6.6,2.4-12.7,5.8-18.1,10.2
	c-6.8,5.7-12.2,12.9-15.9,21c-7.8-10.7-20.2-17-33.5-17.1c-15.4-1.8-30.8-3.6-46.2-5.4c-4.7,38.4-9.4,76.9-14.2,115.3
	c9.7,1.7,19.4,3.4,29.1,5.1c1.6-13,3.2-26,4.9-39.1c11.9,15.2,23.8,30.5,35.7,45.7l23.2-21.2l-20.8-26.4c3.7-0.4,7.4-1.4,10.7-3.2
	c2.4-1.2,4.6-2.8,6.6-4.6c1.9,10.3,6.2,20,12.4,28.3c3.4,4.5,16,20.1,38.6,25.2c11.7,2.5,23.8,1.9,35.2-1.7c6.9-2,22.9-7,34.9-22.2
	C336.2,97.9,335,76.7,334.6,68.8z M296.5,94.4c-1.3,3.2-4.9,12.3-14.9,17.1s-19.6,2-22,1.2c-6.2-2.2-11.6-6.3-15.4-11.7
	c-3.9-5.2-5.1-9.8-7.6-18.8c-1.8-5.7-2.7-11.6-2.9-17.6c-0.1-5.4,0.6-10.9,2-16.1c0.9-2.2,2.1-4.4,3.4-6.4c3-4.7,7.2-8.6,12.2-11.2
	c4.7-2.4,9.9-3.5,15.1-3.2c6.2,0.4,12.1,2.7,16.9,6.6c6.6,5.2,8.9,11.7,11.7,19.5c2.6,7.3,3.9,15,3.9,22.7
	C298.9,83.1,298.9,88.2,296.5,94.4L296.5,94.4z"/>
<path d="M296.5,94.4c-1.3,3.2-4.9,12.3-14.9,17.1s-19.6,2-22,1.2c-6.2-2.2-11.6-6.3-15.4-11.7c-3.9-5.2-5.1-9.8-7.6-18.8
	c-1.8-5.7-2.7-11.6-2.9-17.6c-0.1-5.4,0.6-10.9,2-16.1c0.9-2.2,2.1-4.4,3.4-6.4c3-4.7,7.2-8.6,12.2-11.2c4.7-2.4,9.9-3.5,15.1-3.2
	c6.2,0.4,12.1,2.7,16.9,6.6c6.6,5.2,8.9,11.7,11.7,19.5c2.6,7.3,3.9,15,3.9,22.7C298.9,83.1,298.9,88.2,296.5,94.4z"/>
<path class="st0" d="M296.5,94.4c-1.3,3.2-4.9,12.3-14.9,17.1s-19.6,2-22,1.2c-6.2-2.2-11.6-6.3-15.4-11.7
	c-3.9-5.2-5.1-9.8-7.6-18.8c-1.8-5.7-2.7-11.6-2.9-17.6c-0.1-5.4,0.6-10.9,2-16.1c0.9-2.2,2.1-4.4,3.4-6.4c3-4.7,7.2-8.6,12.2-11.2
	c4.7-2.4,9.9-3.5,15.1-3.2c6.2,0.4,12.1,2.7,16.9,6.6c6.6,5.2,8.9,11.7,11.7,19.5c2.6,7.3,3.9,15,3.9,22.7
	C298.9,83.1,298.9,88.2,296.5,94.4z"/>
<path d="M287.7,203.8c-0.4,2.8-0.6,5.7-0.5,8.6c0.1,3.8,0.2,7.5,2,11.8c1.4,3.5,3.5,6.6,6.3,9.1c2.9,2.5,6.4,4.3,10.1,5.3
	c3.4,1,8.9,2.7,14.9,1c9.7-2.7,13.9-12.2,14.6-13.8l33.2,5.8c-2.3,6.2-5.7,11.9-10.1,16.9c-3.2,3.8-7.1,7.2-11.3,9.8
	c-7.6,4.7-14.6,5.9-19.4,6.8c-6.2,1-12.4,1.2-18.7,0.5c-8.1-0.6-16.1-2.7-23.4-6.3c-21.7-10.4-34.1-33.7-30.8-57.5
	c-3.9,8.5-7.9,17.1-11.8,25.7c-4.3,9.6-8.6,19-12.8,28.5l-24.9-0.8l-29.5-72.3c1.4,7.8,1.5,15.8,0.2,23.7c-0.6,4-1.4,6.2-3,15.4
	c-1.2,6.4-1.5,9.2-2.3,13.9c-0.9,5.6-2.4,13.5-4.8,23.2c-8.5-1.2-25.3-3.6-43.6-6.6c-4.1-0.6-8-1.7-11.8-3.3
	c-7-3-13.2-7.6-18.1-13.4c-3.4,5.4-6.7,10.8-10.1,16.1c-14.5-10.7-29.1-21.3-43.6-32c1.7,12.1,3.3,24.2,5,36.3l-27.6,2.5
	C10.6,222.6,5.3,186.5,0,150.4l50.1-6.8C65,141,79.9,148.4,86.7,162c2.6,5.1,3.9,10.7,4,16.4c0.2,5.3,0.5,11.9-3.5,18.6
	c-3.4,5.4-8.6,9.5-14.6,11.6c4.5,3.3,9.1,6.5,13.6,9.8c0.2-5.1,1.6-10,4.3-14.4c5.8-9.4,15.8-12.3,21.7-14.1
	c7.3-2.2,13.5-2.2,20.1-2.3c4.9,0,9.8,0.3,14.6,1c0.5-3.9-0.5-7.8-2.8-11.1c-1-1.4-2.2-3-4.3-3.5c-3-0.8-5.7,1.2-10.6,4.8
	c-2.5,1.8-4.9,3.9-7.1,6c-7.1-6.9-14.3-13.8-21.4-20.7c3.6-4.2,7.7-7.8,12.4-10.8c4.7-3.2,9.9-5.6,15.4-7c4.5-1.2,9.2-1.7,13.9-1.3
	c4.5,0.3,8.8,1.5,12.8,3.5c3.4,1.8,6.5,4.2,9.1,7c-1.1-2.8-2.2-5.5-3.3-8.3l33.8,3l23.7,59c8.8-19.2,17.5-38.5,26.2-57.7l29.5,1
	c5.6-5.8,12.5-10.3,20.1-13.1c12.5-4.5,23.3-3,30.2-2c6.4,0.7,12.6,2.4,18.4,5c8.4,3.7,15.7,9.5,21.2,16.9c6.4,8.8,8,17.2,9.3,23.7
	c2.2,12,1.6,24.3-1.8,36L287.7,203.8z"/>
</svg>
